<?xml version="1.0" encoding="utf-8"?><!-- Uploaded to: SVG Repo, www.svgrepo.com, Generator: SVG Repo Mixer Tools -->
<svg fill="#000000" width="800px" height="800px" viewBox="0 0 24 24" id="email-file-text" data-name="Flat Line" xmlns="http://www.w3.org/2000/svg" class="icon flat-line"><path id="secondary" d="M12.55,14.63,19.45,10a1,1,0,0,1,1.55.83V20a1,1,0,0,1-1,1H4a1,1,0,0,1-1-1V10.87A1,1,0,0,1,4.55,10l6.9,4.59A1,1,0,0,0,12.55,14.63Z" style="fill: rgb(44, 169, 188); stroke-width: 2;"></path><path id="primary" d="M11.45,14.63a1,1,0,0,0,1.1,0L18,11V4a1,1,0,0,0-1-1H8L6,5v6ZM6,5H8V3Zm6.55,9.63L19.45,10a1,1,0,0,1,1.55.83V20a1,1,0,0,1-1,1H4a1,1,0,0,1-1-1V10.87A1,1,0,0,1,4.55,10l6.9,4.59A1,1,0,0,0,12.55,14.63Z" style="fill: none; stroke: rgb(0, 0, 0); stroke-linecap: round; stroke-linejoin: round; stroke-width: 2;"></path></svg>