<svg id="visual" viewBox="0 0 900 400" width="900" height="400" xmlns="http://www.w3.org/2000/svg" xmlns:xlink="http://www.w3.org/1999/xlink" version="1.1"><rect x="0" y="0" width="900" height="400" fill="#282a49"></rect><defs><linearGradient id="grad1_0" x1="55.6%" y1="0%" x2="100%" y2="100%"><stop offset="5%" stop-color="#ffffff" stop-opacity="1"></stop><stop offset="95%" stop-color="#ffffff" stop-opacity="1"></stop></linearGradient></defs><defs><linearGradient id="grad1_1" x1="55.6%" y1="0%" x2="100%" y2="100%"><stop offset="5%" stop-color="#ffffff" stop-opacity="1"></stop><stop offset="95%" stop-color="#d0d0d8" stop-opacity="1"></stop></linearGradient></defs><defs><linearGradient id="grad1_2" x1="55.6%" y1="0%" x2="100%" y2="100%"><stop offset="5%" stop-color="#a3a3b2" stop-opacity="1"></stop><stop offset="95%" stop-color="#d0d0d8" stop-opacity="1"></stop></linearGradient></defs><defs><linearGradient id="grad1_3" x1="55.6%" y1="0%" x2="100%" y2="100%"><stop offset="5%" stop-color="#a3a3b2" stop-opacity="1"></stop><stop offset="95%" stop-color="#78778d" stop-opacity="1"></stop></linearGradient></defs><defs><linearGradient id="grad1_4" x1="55.6%" y1="0%" x2="100%" y2="100%"><stop offset="5%" stop-color="#4f4f6a" stop-opacity="1"></stop><stop offset="95%" stop-color="#78778d" stop-opacity="1"></stop></linearGradient></defs><defs><linearGradient id="grad1_5" x1="55.6%" y1="0%" x2="100%" y2="100%"><stop offset="5%" stop-color="#4f4f6a" stop-opacity="1"></stop><stop offset="95%" stop-color="#282a49" stop-opacity="1"></stop></linearGradient></defs><defs><linearGradient id="grad2_0" x1="0%" y1="0%" x2="44.4%" y2="100%"><stop offset="5%" stop-color="#ffffff" stop-opacity="1"></stop><stop offset="95%" stop-color="#ffffff" stop-opacity="1"></stop></linearGradient></defs><defs><linearGradient id="grad2_1" x1="0%" y1="0%" x2="44.4%" y2="100%"><stop offset="5%" stop-color="#d0d0d8" stop-opacity="1"></stop><stop offset="95%" stop-color="#ffffff" stop-opacity="1"></stop></linearGradient></defs><defs><linearGradient id="grad2_2" x1="0%" y1="0%" x2="44.4%" y2="100%"><stop offset="5%" stop-color="#d0d0d8" stop-opacity="1"></stop><stop offset="95%" stop-color="#a3a3b2" stop-opacity="1"></stop></linearGradient></defs><defs><linearGradient id="grad2_3" x1="0%" y1="0%" x2="44.4%" y2="100%"><stop offset="5%" stop-color="#78778d" stop-opacity="1"></stop><stop offset="95%" stop-color="#a3a3b2" stop-opacity="1"></stop></linearGradient></defs><defs><linearGradient id="grad2_4" x1="0%" y1="0%" x2="44.4%" y2="100%"><stop offset="5%" stop-color="#78778d" stop-opacity="1"></stop><stop offset="95%" stop-color="#4f4f6a" stop-opacity="1"></stop></linearGradient></defs><defs><linearGradient id="grad2_5" x1="0%" y1="0%" x2="44.4%" y2="100%"><stop offset="5%" stop-color="#282a49" stop-opacity="1"></stop><stop offset="95%" stop-color="#4f4f6a" stop-opacity="1"></stop></linearGradient></defs><g transform="translate(900, 0)"><path d="M0 340C-39.6 325 -79.1 310.1 -122.8 296.6C-166.5 283.1 -214.4 271 -240.4 240.4C-266.4 209.8 -270.7 160.6 -283.6 117.5C-296.6 74.3 -318.3 37.2 -340 0L0 0Z" fill="#3b3c59"></path><path d="M0 283.3C-33 270.9 -65.9 258.4 -102.4 247.1C-138.8 235.9 -178.7 225.9 -200.3 200.3C-222 174.8 -225.6 133.9 -236.4 97.9C-247.2 61.9 -265.2 31 -283.3 0L0 0Z" fill="#64637c"></path><path d="M0 226.7C-26.4 216.7 -52.8 206.7 -81.9 197.7C-111 188.7 -142.9 180.7 -160.3 160.3C-177.6 139.9 -180.4 107.1 -189.1 78.3C-197.7 49.5 -212.2 24.8 -226.7 0L0 0Z" fill="#8e8d9f"></path><path d="M0 170C-19.8 162.5 -39.6 155 -61.4 148.3C-83.3 141.5 -107.2 135.5 -120.2 120.2C-133.2 104.9 -135.3 80.3 -141.8 58.7C-148.3 37.2 -159.1 18.6 -170 0L0 0Z" fill="#bab9c5"></path><path d="M0 113.3C-13.2 108.3 -26.4 103.4 -40.9 98.9C-55.5 94.4 -71.5 90.3 -80.1 80.1C-88.8 69.9 -90.2 53.5 -94.5 39.2C-98.9 24.8 -106.1 12.4 -113.3 0L0 0Z" fill="#e7e7eb"></path><path d="M0 56.7C-6.6 54.2 -13.2 51.7 -20.5 49.4C-27.8 47.2 -35.7 45.2 -40.1 40.1C-44.4 35 -45.1 26.8 -47.3 19.6C-49.4 12.4 -53 6.2 -56.7 0L0 0Z" fill="#ffffff"></path></g><g transform="translate(0, 400)"><path d="M0 -340C42.5 -326.7 84.9 -313.4 122.1 -294.7C159.2 -276 191 -251.8 224.9 -224.9C258.7 -197.9 294.6 -168.1 314.1 -130.1C333.6 -92.2 336.8 -46.1 340 0L0 0Z" fill="#3b3c59"></path><path d="M0 -283.3C35.4 -272.3 70.8 -261.2 101.7 -245.6C132.7 -230 159.2 -209.9 187.4 -187.4C215.6 -164.9 245.5 -140.1 261.8 -108.4C278 -76.8 280.7 -38.4 283.3 0L0 0Z" fill="#64637c"></path><path d="M0 -226.7C28.3 -217.8 56.6 -209 81.4 -196.5C106.1 -184 127.3 -167.9 149.9 -149.9C172.5 -131.9 196.4 -112 209.4 -86.7C222.4 -61.4 224.5 -30.7 226.7 0L0 0Z" fill="#8e8d9f"></path><path d="M0 -170C21.2 -163.4 42.5 -156.7 61 -147.4C79.6 -138 95.5 -125.9 112.4 -112.4C129.4 -98.9 147.3 -84 157.1 -65.1C166.8 -46.1 168.4 -23 170 0L0 0Z" fill="#bab9c5"></path><path d="M0 -113.3C14.2 -108.9 28.3 -104.5 40.7 -98.2C53.1 -92 63.7 -83.9 75 -75C86.2 -66 98.2 -56 104.7 -43.4C111.2 -30.7 112.3 -15.4 113.3 0L0 0Z" fill="#e7e7eb"></path><path d="M0 -56.7C7.1 -54.5 14.2 -52.2 20.3 -49.1C26.5 -46 31.8 -42 37.5 -37.5C43.1 -33 49.1 -28 52.4 -21.7C55.6 -15.4 56.1 -7.7 56.7 0L0 0Z" fill="#ffffff"></path></g></svg>