<svg xmlns="http://www.w3.org/2000/svg" version="1.1" xmlns:xlink="http://www.w3.org/1999/xlink" xmlns:svgjs="http://svgjs.dev/svgjs" width="1440" height="560" preserveAspectRatio="none" viewBox="0 0 1440 560">
    <g mask="url(&quot;#SvgjsMask1488&quot;)" fill="none">
        <rect width="1440" height="560" x="0" y="0" fill="url(&quot;#SvgjsLinearGradient1489&quot;)"></rect>
        <path d="M1154.6293234006946 33.634976741995125L1190.7805636932967 159.70933430117844 1280.7036809598778-2.5162635506068654z" fill="rgba(40, 42, 73, 0.8)" class="triangle-float1"></path>
        <path d="M521 185.8 a136.91 136.91 0 1 0 273.82 0 a136.91 136.91 0 1 0 -273.82 0z" fill="rgba(40, 42, 73, 0.4)" class="triangle-float2"></path>
        <path d="M301.73626754345327 433.47918241531045L266.9609086767544 562.7695964358932 380.52142456985484 534.4557798064252z" fill="rgba(40, 42, 73, 0.2)" class="triangle-float1"></path>
        <path d="M1123.49146274644 396.1033997860087L1051.5941628364728 276.4461987094487 931.9369617599128 348.34349861941587 1003.83426166988 468.00069969597587z" fill="rgba(40, 42, 73, 0.8)" class="triangle-float1"></path>
        <path d="M-7.571,368.724C16.006,368.248,31.188,346.462,42.593,325.821C53.506,306.071,61.251,283.159,50.742,263.192C39.619,242.058,16.31,230.777,-7.571,230.512C-31.946,230.242,-56.384,240.534,-68.169,261.873C-79.637,282.638,-73.069,307.284,-61.367,327.918C-49.467,348.901,-31.689,369.21,-7.571,368.724" fill="rgba(40, 42, 73, 0.2)" class="triangle-float2"></path>
        <path d="M844.34,579.533C891.057,577.646,929.939,548.111,953.91,507.968C978.611,466.603,992.375,414.854,967.208,373.771C942.81,333.943,890.915,325.595,844.34,329.108C804.267,332.131,772.217,356.765,749.868,390.164C723.804,429.114,697.365,475.548,718.287,517.485C740.695,562.401,794.186,581.559,844.34,579.533" fill="rgba(40, 42, 73, 0.2)" class="triangle-float2"></path>
        <path d="M716.8221953817381 245.04687616485703L571.3464721043357 278.63259325059386 604.9321891900726 424.1083165279963 750.407912467475 390.52259944225943z" fill="rgba(186, 185, 197, 0.4)" class="triangle-float3"></path>
        <path d="M1434.9639482154255 329.5688611954274L1309.4212221817143 388.1103957706019 1367.9627567568887 513.6531218043132 1493.5054827906 455.11158722913865z" fill="rgba(186, 185, 197, 0.4)" class="triangle-float3"></path>
        <path d="M1372.7253478281036 270.28918256832867L1414.2301416490852 125.54476510839842 1269.485724189155 84.03997128741682 1227.9809303681734 228.78438874734707z" fill="rgba(40, 42, 73, 0.4)" class="triangle-float2"></path>
        <path d="M378.1880257310329 540.872575892518L283.07413653971423 518.8183063201665 306.5998835043262 600.8623360867007z" fill="rgba(28, 83, 142, 0.4)" class="triangle-float1"></path>
    </g>
    <defs>
        <mask id="SvgjsMask1488">
            <rect width="1440" height="560" fill="#ffffff"></rect>
        </mask>
        <linearGradient x1="15.28%" y1="-39.29%" x2="84.72%" y2="139.29%" gradientUnits="userSpaceOnUse" id="SvgjsLinearGradient1489">
		<stop stop-color="rgba(40, 42, 73, 1)" offset="0"></stop>
		<stop stop-color="rgba(255, 255, 255, 1)" offset="0.97"></stop>
		<stop stop-color="rgba(40, 42, 73, 1)" offset="0"></stop>
        </linearGradient>
        <style>
	@keyframes float1 {
		0%{transform: translate(0, 0)}
		10%{transform: translate(-505px, 220px)}
		20%{transform: translate(525px, 105px)}
		30%{transform: translate(55px, -45px)}
		40%{transform: translate(-100px, 330px)}
		50%{transform: translate(500px, 100px)}
		60%{transform: translate(-55px, -105px)}
		70%{transform: translate(15px, -105px)}
		80%{transform: translate(400px, -55px)}
		90%{transform: translate(15px, 555px)}
		100%{transform: translate(0, 0)}
                }

                .triangle-float1 {
                    animation: float1 160s infinite;
                }

	@keyframes float2 {
		0%{transform: translate(0, 0)}
		10%{transform: translate(55px, 0px)}
		20%{transform: translate(125px, -105px)}
		30%{transform: translate(-55px, 245px)}
		40%{transform: translate(300px, -55px)}
		50%{transform: translate(-150px, 100px)}
		60%{transform: translate(-200px, -105px)}
		70%{transform: translate(-145px, 205px)}
		80%{transform: translate(200px, 55px)}
		90%{transform: translate(-150px, -55px)}
		100%{transform: translate(0, 0)}
                }

                .triangle-float2 {
                    animation: float2 160s infinite;
                }
	@keyframes float3 {
		0%{transform: translate(0, 0)}
		10%{transform: translate(55px, -300px)}
		20%{transform: translate(5px, -105px)}
		30%{transform: translate(-55px, 45px)}
		40%{transform: translate(100px, -55px)}
		50%{transform: translate(-10px, 100px)}
		60%{transform: translate(-200px, -105px)}
		70%{transform: translate(-15px, 205px)}
		80%{transform: translate(200px, 55px)}
		90%{transform: translate(-150px, -55px)}
		100%{transform: translate(0, 0)}
                }

                .triangle-float3 {
                    animation: float3 160s infinite;
                }
        </style>
    </defs>
</svg>